<svg fill="none" height="64" viewBox="0 0 64 64" width="64" xmlns="http://www.w3.org/2000/svg"><path clip-rule="evenodd" d="m19.8243 22.6526-17.23851-17.2385c-.78105-.78105-.78105-2.04738 0-2.82843s2.04738-.78105 2.82842 0l55.99999 56.00013c.7811.781.7811 2.0474 0 2.8284-.781.7811-2.0474.7811-2.8284 0l-17.1108-17.1108-11.2617 16.8098c-.4901.7315-1.4009 1.0564-2.2433.8003-.8425-.2561-1.4183-1.033-1.4183-1.9135v-22h-14.5517c-.7634 0-1.4603-.4347-1.7961-1.1203-.33582-.6856-.25205-1.5026.2159-2.1057zm18.7676 18.7676-8.0402 12.0012v-17.4215c0-1.1045-.8954-2-2-2h-12.4686l6.592-8.4964z" fill="#000" fill-rule="evenodd"/><path d="m48.2527 27-5.3855 8.0387 2.8831 2.8832 7.9113-11.8087c.411-.6135.4505-1.4035.1028-2.0549s-1.026-1.0583-1.7644-1.0583h-13.1724v-19c0-.85485-.5433-1.61519-1.3521-1.89214-.8087-.27694-1.7041-.00926-2.2281.66615l-10.7672 13.87779 2.8509 2.8508 7.4965-9.66216v15.15956c0 1.1046.8954 2 2 2z" fill="#fa1228"/></svg>